<svg width="54" height="79" viewBox="0 0 54 79" fill="none" xmlns="http://www.w3.org/2000/svg">
<path d="M25.8111 24.1029L25.9037 24.09C26.035 23.755 25.8722 20.0336 25.8628 19.4072C25.7955 14.9514 25.6444 10.4833 26.0952 6.03734C26.2852 4.16358 26.447 1.72405 28.3641 0.741001C29.1063 0.355955 29.9728 0.287845 30.7661 0.552168C31.6105 0.831673 32.6181 1.70804 32.9119 2.56111C34.6093 7.57711 34.1313 13.1306 34.4455 18.3536C34.4806 18.9379 34.443 20.5659 34.7058 21.0119C34.7373 19.6609 34.8765 17.8174 34.9858 16.4621C35.1945 13.874 35.2852 6.37715 37.6166 4.88823C46.4208 0.815037 42.3444 21.5581 43.5252 23.4151C43.8614 21.3354 44.3237 14.7653 46.4904 13.8128C48.9701 13.0838 50.4896 13.8651 51.1016 16.4829C51.8638 19.8197 51.4632 23.1391 51.3688 26.5292C51.2569 30.5458 50.9558 34.3844 51.0679 38.4347C51.2609 45.4073 51.5536 53.1225 48.0922 59.4458C47.8628 59.8648 47.0352 61.1032 46.7068 61.3975C47.1153 62.1067 47.0941 62.2627 46.5946 62.9229L47.1378 70.0832C47.2346 71.2124 47.5152 73.4782 47.5187 74.4806C43.77 77.6739 34.9164 78.3768 30.1777 77.8933C28.5136 77.7238 23.018 77.155 21.9098 76.1058C21.6427 75.4154 21.8481 72.5205 21.834 71.541C21.7996 69.1681 21.9858 66.5083 21.4772 64.1749L21.2525 63.5645C20.7512 62.9021 19.2937 61.8478 18.5941 61.2623C16.8008 59.7619 14.638 57.7488 13.3673 55.7905C11.5236 52.9203 10.8515 49.5468 9.68838 46.3917C8.72604 43.7815 7.17825 41.1168 5.65168 38.7865C5.49984 38.6365 5.39562 38.442 5.27758 38.2577C4.22308 36.4585 2.11815 34.0004 2 31.9955C2.02829 31.5438 2.07343 31.4359 2.26261 31.1449C4.05907 28.3818 8.09525 29.3223 10.3352 30.9023C11.519 31.7374 12.4535 32.5564 13.3232 33.7138C14.4048 34.8863 17.5291 40.5869 18.2686 40.9764C18.4995 40.0465 17.872 35.6868 17.7189 34.5428C17.1101 30.01 16.5297 25.4735 15.9777 20.9333C15.5193 17.1095 14.3804 10.7385 16.2706 7.09516C16.8238 6.02892 18.0199 5.69295 19.1375 5.46606C23.0789 4.24469 24.307 15.5593 24.7404 17.9462C25.0864 19.8523 25.6005 22.2031 25.8111 24.1029Z" fill="#FFCC96"/>
<path d="M25.8108 24.1029L25.9035 24.09C26.0348 23.755 25.872 20.0336 25.8625 19.4072C25.7952 14.9514 25.6441 10.4833 26.095 6.03734C26.285 4.16358 26.4467 1.72405 28.3638 0.741001C29.1061 0.355955 29.9726 0.287845 30.7659 0.552168C31.6103 0.831673 32.6179 1.70804 32.9117 2.56111C34.609 7.57711 34.131 13.1306 34.4452 18.3536C34.4804 18.9379 34.4427 20.5659 34.7056 21.0119C34.7841 21.7162 34.5996 23.1291 34.5497 23.8895C34.4185 25.8876 34.1712 27.9847 34.1978 29.9816C31.6033 29.7975 29.4515 29.8065 26.8671 30.3079C26.5374 28.2328 26.1335 26.1462 25.8108 24.1029Z" fill="#FFCC96"/>
<path d="M37.6168 4.88826C46.421 0.815069 42.3446 21.5581 43.5255 23.4151C43.541 23.888 43.2387 25.6947 43.1457 26.3178C42.8674 28.1829 42.6206 29.9066 42.4531 31.7921C40.012 30.7598 38.2021 30.5985 35.6455 30.1278C35.905 23.8978 36.3188 17.6106 36.747 11.3916C36.8971 9.2133 37.5379 7.54397 38.077 5.4768C38.1373 5.24555 37.761 5.00649 37.6168 4.88826Z" fill="#FFCC96"/>
<path d="M37.6163 4.88831C37.7606 5.00653 38.1368 5.24559 38.0765 5.47685C37.5374 7.54401 36.8966 9.21335 36.7465 11.3917C36.3183 17.6106 35.9045 23.8978 35.645 30.1278C38.2016 30.5986 40.0115 30.7598 42.4526 31.7922C42.6201 29.9067 42.8669 28.1829 43.1453 26.3178C43.2382 25.6947 43.5405 23.8881 43.525 23.4151C43.8611 21.3355 44.3234 14.7654 46.4901 13.8129L46.9129 14.1988C47.1001 14.8797 45.9275 17.305 45.7421 18.4197C45.4982 19.8868 45.268 21.3639 45.0514 22.8368C44.5968 25.977 44.1877 29.1235 43.8241 32.2754C44.6573 32.588 46.0661 32.9677 46.56 33.6635C46.6369 34.1512 46.3106 34.654 45.8069 34.5214C44.5356 34.1869 43.2943 33.6197 42.047 33.1755C40.5674 32.6534 39.0554 32.2278 37.5206 31.9012C33.7042 31.0986 29.4495 31.1132 25.6199 31.8955C24.5927 32.1054 22.3911 32.9044 21.5985 32.9045C21.2244 32.7506 21.0644 32.6499 21.1002 32.2261C21.7078 31.4266 24.3143 30.8115 25.4017 30.4869L23.3864 18.3762C22.9769 15.9459 22.3652 12.011 21.7329 9.67846C21.434 8.57988 20.846 7.58145 20.0303 6.78713C19.4582 6.21907 19.3091 6.29217 19.1372 5.46614C23.0786 4.24476 24.3067 15.5594 24.7401 17.9463C25.0861 19.8524 25.6002 22.2031 25.8108 24.103C26.1334 26.1462 26.5374 28.2329 26.8671 30.3079C29.4515 29.8065 31.6033 29.7976 34.1978 29.9816C34.1712 27.9848 34.4185 25.8876 34.5497 23.8896C34.5996 23.1292 34.7841 21.7163 34.7056 21.012C34.7371 19.661 34.8762 17.8175 34.9855 16.4622C35.1943 13.874 35.285 6.37723 37.6163 4.88831Z" fill="#AC8052"/>
<path d="M18.2688 40.9764C19.0505 40.9626 19.886 41.5291 20.6303 41.7001C24.1217 42.5018 27.1518 44.0113 29.7842 46.4512C30.8738 47.4613 34.5874 52.2717 33.5258 53.7407C32.2044 53.8007 32.2107 52.4273 31.6574 51.4109C29.4462 47.3488 25.7662 44.5889 21.3449 43.3592C20.3945 43.0923 18.2987 42.5506 18.1133 41.4038C18.1621 41.2599 18.2056 41.1138 18.2688 40.9764Z" fill="#AC8052"/>
</svg>
