<svg width="55" height="77" viewBox="0 0 55 77" fill="none" xmlns="http://www.w3.org/2000/svg">
<path d="M14.333 31.3501C14.8263 22.7593 13.9419 13.8345 15.176 5.28381C15.3068 4.37823 15.6131 3.42035 15.9424 2.57071C16.4528 0.0682678 20.6557 -0.610218 21.861 1.35276C23.8943 4.66345 23.2141 10.455 23.4731 14.2012C23.678 17.5526 23.5677 21.2819 23.9754 24.3579C24.4944 23.8012 25.0976 23.172 25.8163 22.8966C28.5984 21.83 31.2702 22.7143 32.512 25.3616C35.887 22.9088 39.3649 24.4343 40.3747 28.3994C48.9218 25.2328 48.2842 37.2925 47.9213 42.3542C47.472 48.6143 47.2619 54.8618 43.7798 60.3504C43.3961 60.9598 41.9254 62.5507 41.7715 63.081C41.8193 63.5261 41.811 63.5573 41.5521 64.0169C41.265 65.7575 41.3264 67.8881 41.2286 69.6402C41.1693 70.7029 41.3544 73.7725 41.0393 74.5763C40.1636 75.458 38.2801 75.848 37.0435 76.0944C31.4283 77.2289 25.7851 76.918 20.2419 75.5454C19.4915 75.3593 16.0603 74.5222 16.083 73.6706C16.1823 69.9387 17.042 66.1204 16.4207 62.3812C16.176 62.0142 16.1219 61.9518 16.0577 61.5203C15.9432 61.1844 14.2941 59.3741 13.903 58.8344C11.2858 55.224 7.19166 49.6056 8.13966 44.8883C8.74247 41.8882 10.5095 36.5347 12.0576 33.7637C12.4939 32.9828 13.391 32.3126 14.0828 31.8012L14.333 31.3501Z" fill="#FFCC96"/>
<path d="M24.0324 24.9484C22.8176 25.0625 22.906 28.3527 22.8446 29.3698C20.9965 29.8201 19.1171 30.1949 17.265 30.624C16.4286 30.8178 15.0881 31.0454 14.3328 31.3501L14.0825 31.8012C14.2404 32.106 14.2536 32.1216 14.4755 32.3847L14.4762 32.3855C15.2533 32.674 19.9267 31.5429 20.9913 31.2675L26.4189 29.7923C27.1693 29.5771 28.7169 29.5208 28.9039 31.0165C29.295 35.9458 24.6813 38.4059 20.4174 39.032C19.5612 39.1578 17.5446 38.4673 17.0594 39.3507C17.1871 40.4647 19.6742 40.4459 20.4816 40.4667C20.2112 41.8097 19.9516 43.1973 19.2026 44.3706C18.8337 44.9485 17.4703 45.8715 18.2585 46.5358C19.7977 46.7228 20.5375 44.9303 21.0527 43.7857C25.1806 45.2524 28.7541 48.7398 29.5945 53.1076C29.7193 53.755 29.9627 54.6543 30.2851 55.227C30.5181 55.3529 30.5721 55.3287 30.8373 55.3294C31.9044 54.673 30.6824 51.2285 30.2726 50.2688C28.6408 46.4499 25.2648 43.9366 21.4863 42.4616C21.5675 41.8432 21.6299 40.1236 22.3225 40.0765C22.5751 40.8548 22.9497 42.1594 23.7048 42.847C25.5737 44.5479 27.9699 44.7043 29.7578 42.9322C31.4125 46.3976 34.6803 46.1426 37.14 43.7678C38.439 45.7433 39.9189 45.8216 41.7203 45.4483C44.309 44.9118 47.1254 37.2799 46.4317 35.4032C46.206 35.1578 46.2216 35.1675 45.8981 35.0839C45.6787 35.1409 45.3615 35.2437 45.3001 35.4907C44.6054 38.3083 44.258 40.8233 42.4369 43.2465C42.1913 43.668 41.2689 44.6048 39.9189 44.2298C38.7189 43.8548 38.3251 42.8235 38.1376 42.3732C38.6626 41.4129 39.0856 40.3652 39.2315 39.9614C39.8576 37.9163 41.6818 30.707 40.7926 28.9098C40.5149 28.6866 40.6688 28.7399 40.3152 28.7416C40.0833 28.8756 39.7858 29.1172 39.7671 29.418C39.5549 32.9653 38.5992 39.6994 36.3246 42.3732C35.2314 44.2298 33.4914 44.3452 32.7939 44.0423C31.3689 43.5923 30.7001 42.4173 30.5439 41.886C31.0448 40.7976 31.5168 39.7258 31.6902 39.3259C31.8784 38.7192 32.0479 38.1069 32.1998 37.49C32.6428 35.6443 33.9491 27.0873 33.1078 25.8703C32.933 25.6176 32.7531 25.53 32.4619 25.4674C32.0999 25.6967 31.9959 25.9842 31.9887 26.4163C31.9159 31.1793 31.582 36.3684 29.5456 40.7841C28.4814 43.0918 26.5543 42.9648 25.5751 42.4616C24.6376 41.9798 23.861 40.236 23.7048 39.4785C25.5227 38.9535 26.9337 37.9683 27.6018 37.4626C28.2424 36.8542 29.0724 36.0774 29.4957 35.2643C30.4962 33.3422 30.9902 29.7097 28.7001 28.4684C27.4499 27.7908 25.6059 28.5387 24.3194 28.9344C24.3766 27.9994 24.6044 26.2164 24.5181 25.3944C24.2768 25.0396 24.4078 25.1415 24.0324 24.9484Z" fill="#AC8052"/>
</svg>
