<svg width="900" height="991" viewBox="0 0 900 991" fill="none" xmlns="http://www.w3.org/2000/svg">
<g id="puppy">
<g id="tail">
<g id="Vector">
<path d="M328.336 237.341L328.373 237.389C307.958 236.653 288.231 239.355 269.975 248.845C266.909 250.439 254.384 258.19 253.201 261.097C245.585 266.095 226.849 281.534 247.36 283.604C244.171 287.555 239.923 292.13 237.257 296.242C224.64 315.703 223.493 337.434 231.088 358.925C238.62 380.241 245.91 363.485 256.311 355.488C258.596 353.7 261.136 352.028 263.821 350.728C264.072 356.303 264.829 363.738 272.288 362.565C282.041 361.032 298.118 346.467 304.162 339.237C304.235 340.737 304.316 343.859 304.74 345.195C308.773 357.898 319.281 347.995 325.834 341.743C377.601 292.346 405.101 293.346 443.601 350.728C456.601 341.743 468.601 339.237 485.101 339.237C479.101 276.346 445.903 244.715 425.541 239.244C419.949 237.741 420.354 248.373 420.628 251.372C397.991 233.457 356.2 216.884 326.73 226.489C321.317 228.253 326.447 234.895 328.336 237.341Z" fill="#D9934C"/>
<path d="M253.201 261.097C259.506 259.043 264.533 257.906 271.235 257.366C276.784 256.919 287.967 257.973 281.369 266.134C280.782 266.856 280.174 267.56 279.546 268.245C289.066 268.213 313.329 268.102 314.538 283.288C314.98 288.83 308.152 296.972 305.506 302.109C309.482 301.472 312.775 300.415 316.358 302.178C318.067 304.271 317.785 305.818 316.455 308.166C311.605 316.734 303.168 328.838 304.162 339.237C298.118 346.467 282.041 361.032 272.288 362.565C264.829 363.738 264.072 356.303 263.821 350.728C261.136 352.028 258.596 353.7 256.311 355.488C245.91 363.485 238.62 380.241 231.088 358.925C223.493 337.434 224.64 315.703 237.257 296.242C239.923 292.13 244.171 287.555 247.36 283.604C226.849 281.534 245.585 266.095 253.201 261.097Z" fill="white"/>
</g>
</g>
<g id="body">
<g id="Vector_2">
<path d="M611.143 529.249C582.398 636.529 490.329 705.072 405.503 682.343C320.676 659.613 275.214 554.22 303.959 446.939C332.705 339.658 424.774 271.116 509.6 293.845C594.427 316.574 639.889 421.968 611.143 529.249Z" fill="#373737"/>
<path fill-rule="evenodd" clip-rule="evenodd" d="M583.346 405.177C580.396 417.206 579.421 441.827 579.611 454.389C579.867 471.346 582.101 499.346 611.101 529.346C634.847 440.724 607.982 353.323 550.101 312.789C573.001 335.076 591.301 365.73 592.796 399.31C592.926 402.249 592.841 406.13 591.456 408.756C588.479 410.986 586.386 408.604 584.398 406.343C584.045 405.941 583.696 405.544 583.346 405.177Z" fill="#EDE2D7"/>
</g>
</g>
<g id="ear-right">
<g id="Vector_3">
<path d="M615.237 439.843C635.527 433.64 688.482 417.481 695.987 447.215C702.157 471.661 687.642 502.471 676.202 523.703C663.332 547.814 650.042 562.216 631.042 580.766C633.252 582.436 633.637 582.771 635.447 584.931C629.987 597.446 610.637 607.321 598.152 612.221C592.969 613.929 582.602 616.846 572.102 618.846C564.503 567.846 542.602 526.346 517.102 493.846C525.602 475.346 541.807 456.293 555.252 454.453C557.017 454.212 557.727 454.797 558.967 455.867C560.201 458.524 559.783 460.88 559.295 463.621C559.259 463.823 559.223 464.027 559.187 464.233C561.056 463.273 562.802 462.36 564.496 461.474L564.505 461.47C569.138 459.048 573.384 456.828 578.702 454.389C581.165 453.403 583.864 452.293 586.833 451.072L586.835 451.071C594.378 447.968 603.66 444.15 615.237 439.843Z" fill="#C17F3E"/>
<path d="M666.112 510.742C677.087 489.319 692.892 444.951 651.387 449.048C622.377 451.964 592.947 467.691 569.602 484.659C552.102 497.379 535.702 512.046 532.102 514.846C546.602 537.346 559.102 561.846 567.602 595.846C608.102 577.346 637.962 551.041 651.947 532.961C657.382 526.035 662.127 518.593 666.112 510.742Z" fill="#EDE2D7"/>
</g>
</g>
<g id="ear-left">
<g id="Vector_4">
<path d="M337.328 319.766C332.856 326.74 329.793 335.094 325.834 341.743C317.088 360.898 311.002 381.159 307.744 401.963C306.064 400.846 305.316 400.054 303.358 400.224C294.554 403.808 296.891 431.755 298.15 440.464C298.682 444.145 299.964 448.836 300.979 452.46C302.019 455.255 305.601 464.346 308.601 470.346C361.101 453.346 386.601 450.346 437.101 453.346C441.601 446.846 444.67 440.803 445.705 439.032C450.649 429.487 454.049 419.654 453.729 408.743C453.624 405.157 453.666 398.537 449.004 397.719C446.429 397.267 443.954 399.476 441.886 400.901C439.717 374.945 429.899 330.01 419.186 306.675L415.91 298.476C410.311 290.142 401.418 276.16 390.59 274.87C366.858 272.044 348.282 302.686 337.328 319.766Z" fill="#C17F3E"/>
<path d="M419.441 402.158C419.25 410.905 418.101 432.346 413.101 451.846C378.601 451.846 362.101 454.346 329.601 463.346C324.728 444.346 324.223 429.064 324.728 421.438C327.639 381.302 337.359 336.239 367.321 307.244C377.333 297.555 389.592 295.406 398.624 307.643C417.984 333.875 420.127 370.698 419.441 402.158Z" fill="#EDE2D7"/>
</g>
</g>
<g id="head">
<g id="Vector_5">
<path d="M475.031 535.321C497.323 514.713 506.17 496.606 505.114 465.846V465.72C497.026 460.313 488.551 455.45 479.774 451.261L479.601 451.346C446.492 468.178 440.756 489.162 432.326 520.004L432.233 520.346C431.697 522.305 431.151 524.305 430.585 526.345C424.737 547.43 409.226 569.872 389.698 579.379C382.84 582.934 371.871 587.274 364.459 588.009C364.377 588.008 364.295 588.007 364.214 588.006C360.915 590.344 357.954 591.191 354.032 592.287C339.443 596.372 324.861 601.621 313.887 612.546C311.167 615.246 308.546 618.171 305.753 620.821C306.164 616.581 305.837 611.536 301.453 609.356C296.48 609.476 295.557 613.861 296.456 617.806C297.225 621.181 294.601 626.711 294.125 630.201C290.397 648.436 291.464 658.461 298.865 674.896C294.639 697.596 284.535 708.581 300.282 732.301C306.637 741.876 318.696 749.686 329.985 751.586C343.015 753.781 354.421 751.816 365.197 744.026C370.229 741.236 377.728 733.166 382.764 731.466C388.824 729.416 396.1 730.591 402.907 728.521C414.003 725.626 422.977 719.181 432.249 712.891C434.377 711.446 439.676 713.546 440.961 707.716C441.711 704.316 437.67 702.581 435.147 702.141C433.099 701.786 430.753 702.972 429.177 703.912C429.604 700.247 432.201 696.946 433.604 693.471C438.715 680.871 439.462 667.726 438.131 654.351C437.572 648.736 435.012 639.596 435.598 634.346C434.175 628.376 433.356 622.276 433.153 616.141C431.972 580.736 450.691 557.821 475.031 535.321Z" fill="white"/>
<path fill-rule="evenodd" clip-rule="evenodd" d="M586.987 667.936C592.227 650.236 593.101 631.346 589.601 615.346C588.835 611.846 588.101 595.346 575.601 569.846C581.601 571.346 582.782 570.865 585.616 567.727C585.726 560.28 575.426 550.993 569.336 547.599C569.645 547.53 570.035 547.447 570.478 547.352C572.639 546.889 576.042 546.161 577.291 545.6C594.471 537.868 569.261 525.341 561.951 522.925C562.379 522.698 562.872 522.445 563.41 522.169C567.611 520.013 574.552 516.451 574.946 512.981C575.851 504.947 556.376 500.835 551.711 500.209C541.311 495.009 530.799 486.069 526.898 482.363C521.805 477.946 511.006 468.865 505.114 465.846C506.17 496.606 497.323 514.713 475.031 535.321C450.691 557.821 431.972 580.736 433.153 616.141C433.356 622.276 434.175 628.376 435.598 634.346C440.227 645.926 446.406 658.551 459.021 664.116C470.582 669.214 482.429 665.988 493.643 662.935C510.332 658.391 525.618 654.229 536.467 678.456C541.506 689.706 543.566 717.366 543.697 729.611C557.707 716.816 561.622 697.406 563.962 679.581C575.816 694.376 583.602 679.356 586.987 667.936Z" fill="#D9934C"/>
<path fill-rule="evenodd" clip-rule="evenodd" d="M418.68 432.41C422.453 434.769 442.178 438.786 445.665 438.975C456.614 441.662 469.603 446.002 479.601 451.346C446.492 468.178 440.756 489.162 432.326 520.004C431.761 522.073 431.184 524.186 430.585 526.345C424.737 547.43 409.226 569.872 389.698 579.379C382.84 582.934 371.871 587.274 364.459 588.009C362.554 587.981 360.81 587.995 359.171 588.009C351.942 588.069 346.757 588.111 338.854 584.37C322.12 576.441 319.481 563.227 316.604 548.825C315.69 544.244 314.751 539.543 313.327 534.854C303.551 502.657 263.128 517.805 239.98 526.479C238.987 526.851 238.026 527.211 237.101 527.555C243.186 512.898 261.273 497.913 275.197 490.368C275.049 490.31 274.898 490.25 274.743 490.189C271.832 489.045 267.709 487.425 266.983 484.418C263.458 469.83 291.497 456.123 301.043 452.589C304.614 452.092 307.858 451.164 311.336 450.17C315.826 448.886 320.704 447.492 327.171 446.771C334.896 445.943 340.448 446.005 348.176 446.113C347.825 445.819 347.488 445.548 347.167 445.29C345.215 443.722 343.859 442.631 343.576 439.898C345.581 434.725 357.664 435.471 364.313 435.882C365.194 435.937 365.979 435.985 366.632 436.013C357.653 417.079 383.62 428.5 390.371 433.157C388.339 419.549 389.624 411.775 404.219 420.597C409.512 423.796 412.259 425.949 416.37 430.62L417.077 429.229C417.115 429.461 417.143 429.674 417.17 429.874C417.31 430.941 417.398 431.607 418.68 432.41Z" fill="#D9934C"/>
<path d="M381.084 494.422C393.172 493.583 406.037 504.106 408.723 515.84C410.394 523.139 408.2 531.819 399.834 533.501C393.059 534.863 387.388 530.414 382.054 526.867C378.142 524.811 375.713 524.019 371.694 522.54C367.145 520.539 347.259 520.632 350.806 511.795C355.926 499.041 371.263 499.584 381.857 502.873C380.031 499.513 379.153 497.877 381.084 494.422Z" fill="#EDE2D7"/>
<path d="M483.498 564.418C493.467 563.848 503.979 567.374 510.664 575.246C511.526 576.261 511.297 577.246 511.117 578.401C509.189 580.996 507.935 580.941 504.793 581.406C512.304 588.351 525.082 610.136 509.498 614.776C502.517 613.296 499.335 606.226 494.204 601.076C487.851 594.216 472.526 591.511 469.562 582.156C466.246 571.694 475.866 566.769 483.498 564.418Z" fill="#EDE2D7"/>
<path d="M237.036 527.426C259.539 519.063 303.067 501.148 313.262 534.725C319.163 554.159 316.733 573.791 338.789 584.241C348.484 588.831 354.089 587.726 364.394 587.881C361.023 590.316 358.025 591.172 354.032 592.287C339.443 596.372 324.861 601.621 313.887 612.546C311.167 615.246 308.546 618.171 305.753 620.821C306.164 616.581 305.837 611.536 301.453 609.356C296.48 609.476 295.557 613.861 296.456 617.806C297.225 621.181 294.601 626.711 294.125 630.201C290.397 648.436 291.464 658.461 298.865 674.896C294.639 697.596 284.535 708.581 300.282 732.301C306.637 741.876 318.696 749.686 329.985 751.586C343.015 753.781 354.421 751.816 365.197 744.026C370.229 741.236 377.728 733.166 382.764 731.466C388.824 729.416 396.1 730.591 402.907 728.521C414.003 725.626 422.977 719.181 432.249 712.891C434.377 711.446 439.676 713.546 440.961 707.716C441.711 704.316 437.67 702.581 435.147 702.141C433.099 701.786 430.753 702.972 429.177 703.912C429.604 700.247 432.201 696.946 433.604 693.471C438.715 680.871 439.462 667.726 438.131 654.351C437.572 648.736 434.922 639.461 435.508 634.211C440.137 645.791 446.315 658.416 458.931 663.981C487.696 676.666 518.238 637.816 536.376 678.321C541.416 689.571 543.476 717.231 543.606 729.476C541.726 732.096 538.351 732.681 535.416 733.336C533.321 731.396 531.091 728.731 529.161 726.546C528.771 727.496 528.331 728.421 527.836 729.316C519.89 743.951 507.685 758.756 491.252 763.661C490.44 762.911 489.643 762.146 488.859 761.366C485.766 758.266 485.946 756.056 485.946 751.951C456.325 765.991 437.2 768.401 404.352 760.696C397.219 759.026 389.162 756.381 382.201 754.931C369.612 762.421 357.34 767.246 342.527 766.941C323.011 766.706 306.898 759.696 293.498 745.566C275.745 726.846 275.727 708.216 276.089 684.481C274.262 681.081 266.315 670.801 263.406 666.496C244.769 638.911 239.972 621.416 240.049 588.846C237.165 589.766 235.281 590.241 232.316 590.866C229.626 589.011 229.093 588.516 227.275 585.906C226.67 572.166 232.172 560.871 239.132 549.356C241.168 545.987 243.736 542.878 245.474 539.347L245.258 538.921C238.956 538.793 234.691 533.157 237.036 527.426Z" fill="#EDE2D7"/>
<path d="M298.865 675.386C291.464 658.951 290.397 648.926 294.125 630.691C294.601 627.201 297.225 621.671 296.456 618.296C295.556 614.351 296.48 609.966 301.453 609.846C305.838 612.026 306.164 617.071 305.753 621.311C293.855 651.206 303.828 690.816 341.182 691.136C343.915 688.686 346.028 685.591 347.907 682.446C336.733 668.126 325.783 633.141 355.874 632.896C369.132 632.791 388.226 645.626 396.228 655.971C413.336 680.826 377.516 692.241 358.321 688.091C357.276 687.861 356.238 687.606 355.206 687.326L350.018 695.406C353.024 705.041 359.794 713.051 368.792 717.626C389.697 728.426 412.746 718.391 429.176 704.401C430.752 703.461 433.099 702.276 435.147 702.631C437.67 703.071 441.711 704.806 440.961 708.206C439.676 714.036 434.377 711.936 432.249 713.381C422.977 719.671 414.003 726.116 402.907 729.011C396.1 731.081 388.824 729.906 382.763 731.956C377.728 733.656 370.228 741.726 365.197 744.516C354.42 752.306 343.015 754.271 329.985 752.076C318.696 750.176 306.637 742.366 300.282 732.791C284.535 709.071 294.639 698.086 298.865 675.386Z" fill="#373737"/>
<path d="M310.157 688.161C311.467 688.611 317.183 692.951 319.092 694.016C325.908 697.801 334.192 698.366 341.845 699.526C349.648 714.136 351.779 716.491 365.436 725.421C362.051 730.671 357.69 735.221 352.59 738.826C349.115 740.876 345.336 742.366 341.394 743.226C332.849 745.061 323.926 743.376 316.633 738.561C298.303 726.411 298.697 705.061 310.157 688.161Z" fill="#DD4E64"/>
<path d="M357.032 640.421C364.712 639.966 374.716 645.266 380.578 649.816C384.076 652.531 391.492 657.881 389.679 663.086C389.171 664.546 387.222 665.271 385.904 665.896C380.003 665.991 352.256 650.981 353.554 643.176C354.514 641.451 355.155 641.356 357.032 640.421Z" fill="#605D5A"/>
</g>
</g>
<g id="eye-right">
<g id="Vector_6">
<path d="M468.336 604.231C480.781 603.186 491.733 612.396 492.836 624.836C493.938 637.276 484.778 648.266 472.342 649.426C459.829 650.586 448.754 641.356 447.645 628.841C446.535 616.321 455.814 605.286 468.336 604.231Z" fill="#373737"/>
<path d="M464.379 610.626C466.62 609.811 469.125 610.271 470.934 611.821C472.742 613.376 473.573 615.786 473.108 618.121C472.642 620.461 470.952 622.366 468.686 623.106C465.26 624.226 461.569 622.391 460.393 618.986C459.217 615.581 460.991 611.856 464.379 610.626Z" fill="#FEFEFE"/>
</g>
</g>
<g id="eye-left">
<g id="Vector_7">
<path d="M357.156 531.681C369.615 530.017 381.048 538.815 382.631 551.285C384.214 563.755 375.344 575.131 362.864 576.631C350.497 578.121 339.246 569.35 337.677 556.993C336.108 544.636 344.809 533.329 357.156 531.681Z" fill="#373737"/>
<path d="M357.184 537.628C360.787 537.619 363.726 540.513 363.772 544.116C363.818 547.72 360.954 550.688 357.351 550.771C354.988 550.825 352.778 549.606 351.563 547.578C350.348 545.55 350.316 543.026 351.478 540.968C352.641 538.91 354.82 537.634 357.184 537.628Z" fill="#FEFEFE"/>
</g>
</g>
</g>
</svg>
