<svg width="54" height="58" viewBox="0 0 54 58" fill="none" xmlns="http://www.w3.org/2000/svg">
<path d="M22.492 0.0996681C27.6506 -0.769104 30.0583 4.20947 30.805 8.50456C31.4956 12.4775 29.7525 15.7918 29.9636 19.6778C29.9688 19.7668 30.0167 19.9769 30.0343 20.064C34.884 19.0432 43.9657 16.5254 48.2236 19.3308C49.5184 20.1867 50.4118 21.5291 50.7009 23.0532C51.0618 24.8914 50.4732 25.3684 50.0343 26.8555L50.1622 27.1209C51.482 27.9522 52.4243 28.6284 52.7706 30.2198C53.3198 32.7413 52.6188 34.2053 51.093 36.073C53.2906 39.6978 53.2865 42.2495 49.8544 45.0456L49.8294 45.1028C49.9386 45.5634 50.2621 46.3319 50.2922 46.7228C50.6656 51.6506 45.7244 52.8505 42.2475 53.3902C41.4477 53.5243 40.6958 53.5753 39.8897 53.6397C32.5668 55.2889 26.5076 56.8247 19.245 53.9527C18.7936 54.1087 18.5388 54.2293 18.0749 54.0411C16.0323 54.2626 8.32663 57.616 7.3438 57.3051C5.73902 56.7977 4.27048 53.7136 3.56222 52.2412C1.31261 47.5651 -0.0758379 41.8804 0.00320504 36.68C0.0167255 35.777 0.00528764 34.7344 0.33082 33.8833C0.447304 33.5784 0.601221 33.2911 0.906993 33.1457C2.04168 32.6054 3.48109 32.3964 4.70314 32.0748C6.98186 31.4751 9.38748 30.7457 11.5237 29.7456C11.7754 29.3829 11.8555 29.3371 12.2195 29.0784C12.3547 28.7988 12.7499 27.3919 12.8716 27.0026C13.2315 25.8156 13.687 24.6595 14.232 23.5454C15.2991 21.3816 16.3433 20.114 17.6308 18.1659C19.5299 15.3039 20.6355 11.9893 20.8352 8.5605C20.8279 8.16578 20.8726 7.87162 20.9205 7.48324C21.0099 5.48678 20.4181 2.05443 21.5403 0.613131C21.8202 0.284637 22.0077 0.190887 22.492 0.0996681Z" fill="#FFCC96"/>
<path d="M29.7081 20.0383C29.3753 19.9056 29.5478 19.9226 29.1723 20.0291C28.59 20.6557 29.0008 22.0261 29.0892 22.8274C29.7007 28.3708 29.0226 34.2814 25.267 38.6777C24.6888 39.3535 23.2535 40.2979 23.0278 41.137C23.111 41.5373 23.0414 41.3886 23.3387 41.6922C25.061 42.1757 28.1054 37.1086 28.7918 35.802C28.7918 37.5035 29.6954 38.6777 30.8875 39.6489C28.9696 41.8367 29.7892 44.9097 31.6955 46.3028C32.0179 46.4775 32.3632 46.621 32.7002 46.7666C31.3939 48.4594 31.473 50.3778 33.3253 51.6703C35.2702 53.0273 37.6446 53.1573 39.89 53.6398C40.696 53.5753 41.4479 53.5243 42.2477 53.3902C42.2726 53.0159 42.2831 52.9712 42.2041 52.6104C42.072 52.4617 41.9805 52.3016 41.7694 52.2704C39.7767 51.9709 37.8089 51.8679 35.8412 51.3667C35.0563 51.1831 33.4542 50.4972 33.3253 49.2222C33.213 48.4477 33.6786 46.9903 36.4392 47.3573C40.3518 47.534 43.528 47.5756 47.3376 46.3954C48.1114 46.1563 49.447 45.8068 49.8297 45.1029L49.8546 45.0457C49.268 43.9207 48.5035 44.4633 47.451 44.8033C43.2586 46.1447 38.8031 46.4442 34.4683 45.6747C32.2865 45.0981 31.8036 44.2535 31.5135 43.1285C31.1992 41.9097 31.5135 41.1597 32.3204 40.5035C32.9767 40.0347 34.1739 40.3103 34.9332 40.3207C37.6934 40.3571 40.567 40.171 43.2628 39.5471C44.7438 39.2044 51.3219 37.7872 51.0433 35.8762C50.4786 35.2624 49.7016 35.8777 48.8582 36.257C44.4983 38.2183 39.7318 39.1103 34.957 38.8588C31.4413 38.668 30.4219 37.0632 30.3517 36.2847C30.2017 35.1597 30.6329 34.2879 31.5135 33.6769C33.7017 32.1587 34.124 32.6213 36.6492 32.4503C38.28 32.3245 39.8972 32.0545 41.4801 31.6437C43.5893 31.0864 49.0901 28.9734 50.1624 27.121L50.0346 26.8555C49.7549 26.6885 49.5457 26.4835 49.2348 26.5766C48.2644 26.8678 47.4333 27.7887 46.5576 28.2083C43.3158 29.7614 40.2726 30.5919 36.7355 31.0889C32.7676 31.5072 32.1329 30.7534 31.6955 29.8159C31.1973 28.2282 32.0027 27.2199 32.3336 26.8058L32.3336 26.8057L32.3373 26.8011C34.8271 23.9875 39.7869 23.1252 42.9757 21.4806C43.2992 21.3135 43.7141 20.9045 43.71 20.5118C43.0744 19.9983 40.7917 21.166 40.0065 21.4237C36.3726 22.6157 33.2296 23.3786 30.7283 26.4875C30.6399 25.0256 30.5691 20.9919 29.7081 20.0383Z" fill="#AC8052"/>
<path d="M30.3911 30.4965C30.9589 31.1865 31.0036 31.356 31.7265 31.9137C31.2408 32.1766 30.8851 32.4094 30.4254 32.7131L29.7681 33.4266C30.0125 32.4268 30.1966 31.5052 30.3911 30.4965Z" fill="#FFCC96"/>
</svg>
